<?xml version="1.0" encoding="UTF-8"?>
<svg id="Calque_1" data-name="Calque 1" xmlns="http://www.w3.org/2000/svg" viewBox="0 0 298.55 73.87">
  <defs>
    <style>
      .cls-1 {
        fill: #fff;
      }
    </style>
  </defs>
  <g>
    <path class="cls-1" d="M124.79,63.78c1.61-2.89,2.42-6.39,2.42-10.49v-15.35c0-6.16-1.79-10.93-5.38-14.32-3.59-3.39-8.66-5.08-15.22-5.08h-17.17v54.16h17.14c4.37,0,8.1-.76,11.18-2.29,3.08-1.53,5.43-3.74,7.04-6.63ZM97.04,65.48V25.77h9.8c4,0,7.1,1.04,9.29,3.11,2.2,2.07,3.3,5,3.3,8.77v15.94c0,3.77-1.1,6.7-3.3,8.77-2.2,2.07-5.3,3.11-9.29,3.11h-9.8Z"/>
    <path class="cls-1" d="M172.61,63.24c1.58-3,2.37-6.51,2.37-10.5v-15.35c0-4.02-.79-7.53-2.37-10.52-1.58-2.99-3.79-5.31-6.65-6.97-2.86-1.65-6.2-2.48-10.02-2.48s-7.17.83-10.02,2.48c-2.86,1.65-5.07,3.97-6.65,6.97-1.58,2.99-2.37,6.5-2.37,10.52v15.35c0,4,.79,7.5,2.37,10.5s3.79,5.33,6.65,6.98c2.86,1.65,6.2,2.48,10.02,2.48s7.16-.83,10.02-2.48c2.86-1.65,5.07-3.98,6.65-6.98ZM147.78,61.86c-2.06-2.23-3.09-5.19-3.09-8.87v-15.87c0-3.7,1.03-6.66,3.09-8.88,2.06-2.22,4.78-3.33,8.16-3.33s6.13,1.11,8.18,3.33c2.05,2.22,3.07,5.18,3.07,8.88v15.87c0,3.68-1.02,6.63-3.07,8.87-2.05,2.24-4.77,3.35-8.18,3.35s-6.1-1.12-8.16-3.35Z"/>
    <path class="cls-1" d="M218.59,65.07c1.76-2.41,2.95-5.23,3.58-8.46h-7.79c-.72,2.81-2.12,4.95-4.21,6.44-2.09,1.49-4.31,2.24-6.67,2.24-3.33,0-6-1.17-8.03-3.5-2.02-2.33-3.04-5.43-3.04-9.28v-14.86c0-3.85,1.01-6.95,3.04-9.29,2.02-2.35,4.7-3.52,8.03-3.52,1.59,0,3.13.36,4.62,1.08,1.49.72,2.79,1.73,3.89,3.04,1.1,1.3,1.89,2.83,2.37,4.56h7.79c-.62-3.23-1.81-6.05-3.56-8.46-1.75-2.41-3.92-4.28-6.52-5.62-2.59-1.34-5.46-2.01-8.59-2.01-3.78,0-7.08.84-9.91,2.51-2.83,1.68-5.03,4.03-6.59,7.06-1.56,3.03-2.35,6.58-2.35,10.65v14.86c0,4.05.78,7.59,2.35,10.62,1.56,3.03,3.76,5.38,6.59,7.06,2.83,1.68,6.13,2.51,9.91,2.51,3.13,0,5.98-.67,8.57-2.01,2.58-1.34,4.76-3.22,6.52-5.62Z"/>
    <path class="cls-1" d="M267.65,57.02v-.07c0-2.96-.49-5.35-1.47-7.19-.98-1.84-2.29-3.28-3.91-4.34-1.63-1.06-3.43-1.86-5.42-2.42-1.99-.56-3.97-1.04-5.96-1.43-2.21-.45-4.28-.93-6.2-1.43-1.92-.51-3.48-1.3-4.67-2.37-1.19-1.07-1.79-2.62-1.79-4.66v-.04c0-2.71,1.02-4.8,3.07-6.28,2.05-1.48,4.92-2.22,8.62-2.22,2.06,0,4.12.37,6.16,1.12,2.05.74,4.1,1.89,6.16,3.43l4.32-6.03c-2.63-1.91-5.34-3.33-8.12-4.27-2.78-.93-5.62-1.4-8.53-1.4-6.11,0-10.84,1.38-14.19,4.15-3.35,2.77-5.03,6.67-5.03,11.72v.04c0,3.15.53,5.67,1.58,7.56,1.06,1.89,2.45,3.33,4.19,4.34,1.74,1.01,3.64,1.75,5.72,2.22,2.07.47,4.13.88,6.16,1.23,2.11.35,4.05.79,5.83,1.32,1.78.53,3.21,1.35,4.3,2.44,1.09,1.09,1.64,2.67,1.64,4.73v.04c0,2.63-1.08,4.68-3.24,6.15-2.16,1.47-5.2,2.2-9.13,2.2-2.91,0-5.6-.45-8.08-1.34-2.48-.89-4.76-2.24-6.82-4.02l-4.73,5.81c1.76,1.49,3.66,2.73,5.68,3.73,2.02.99,4.2,1.74,6.52,2.24,2.32.5,4.8.74,7.43.74,6.31,0,11.2-1.37,14.68-4.1,3.48-2.73,5.22-6.59,5.22-11.59Z"/>
    <path class="cls-1" d="M286.45,62.2c-.27-1.45-.88-2.52-1.84-3.2-.96-.68-2.02-1.02-3.18-1.02-1.91,0-3.43.56-4.57,1.67-1.14,1.11-1.7,2.81-1.7,5.09v9.12h23.14v-9.39c0-2.09-.58-3.75-1.73-4.97-1.16-1.22-2.68-1.83-4.57-1.83h-.05c-1.36,0-2.56.4-3.61,1.19-1.05.79-1.68,1.9-1.89,3.33ZM278.17,70.64v-5.3c0-1.36.29-2.38.86-3.06.57-.68,1.44-1.02,2.59-1.02,1.09,0,1.92.31,2.49.92.57.61.85,1.51.85,2.71v5.75h-6.8ZM291.72,60.96c1.07,0,1.94.36,2.59,1.07.66.72.99,1.93.99,3.65v4.95h-7.4v-5.75c0-1.4.34-2.41,1.03-3.02.68-.61,1.6-.92,2.75-.92h.05Z"/>
    <path class="cls-1" d="M275.98,41.36c-.71,1.22-1.06,2.65-1.06,4.28s.35,3.06,1.06,4.28c.71,1.22,1.7,2.17,2.98,2.84,1.28.67,2.78,1.01,4.5,1.01h6.56c1.71,0,3.2-.34,4.49-1.01,1.28-.67,2.28-1.62,2.98-2.84.71-1.22,1.06-2.65,1.06-4.28s-.35-3.06-1.06-4.28c-.71-1.22-1.7-2.17-2.98-2.84-1.28-.67-2.78-1.01-4.49-1.01h-6.56c-1.72,0-3.22.34-4.5,1.01-1.28.67-2.27,1.62-2.98,2.84ZM290.13,40.84c1.57,0,2.83.44,3.79,1.31.96.88,1.43,2.04,1.43,3.49s-.48,2.61-1.43,3.49c-.96.88-2.22,1.32-3.79,1.32h-6.78c-1.58,0-2.85-.44-3.8-1.32-.95-.88-1.42-2.04-1.42-3.49s.47-2.62,1.42-3.49c.95-.88,2.21-1.31,3.8-1.31h6.78Z"/>
    <polygon class="cls-1" points="286.49 24.69 275.16 17.77 275.16 21.42 283.67 26.4 275.16 31.45 275.16 35.09 286.5 28.1 298.31 35.28 298.31 31.64 289.32 26.38 298.31 21.07 298.31 17.42 286.49 24.69"/>
  </g>
  <g>
    <path class="cls-1" d="M79.37,41.53c-1.29-3.69-6.39-2.28-9.34-2.57l-.15.16c-.52-.25-2.06-.25-2.58,0l-.15-.16h-4.27s0-5.51,0-5.51c0-1.27-1.56-3.26-2.61-3.89-.7-.42-1.56-.7-2.37-.83l-.11.18-.23,3.01c.84.05,1.66.64,2,1.41.04.09.19.46.19.51v5.12h-17.65c-1.26.12-2.72-.22-3.91.16l-.15-.16c-3.8.2-7.82-.24-11.59,0-1.89.12-3.33,1.03-4.45,2.51l-15.09,29.24c-1.64.23-3.37-.59-3.58-2.36V26.95c.05-1.13,1.36-2.38,2.47-2.38h4.19v-3.13h-4.58c-.17,0-.7.14-.9.2-2.53.65-4.25,2.88-4.34,5.48-.27,7.84.15,15.84-.05,23.63.31,5.72-.4,11.86,0,17.53.22,3.07,2.48,5.28,5.43,5.6h54.85c2.86-.38,4.79-2.45,5.9-4.99,3.88-7.79,8.56-15.37,12.41-23.18.69-1.4,1.2-2.59.65-4.17ZM76.41,43.15c-4.52,8.78-9.27,17.48-13.97,26.17-.67.79-1.59,1.37-2.65,1.42H10.53c-.08-.08.49-1.15.58-1.34,1.06-2.07,2.25-4.12,3.13-6.25,3.61-6.15,6.4-12.99,9.93-19.17.5-.87,1.1-1.71,2.19-1.8,15.52.12,31.04-.14,46.56-.03.8,0,2.17-.07,2.89.04.55.08.65.46.58.97Z"/>
    <rect class="cls-1" x="18.17" y="14.98" width="30.64" height="3.13"/>
    <rect class="cls-1" x="18.17" y="23.54" width="30.64" height="3.13"/>
    <rect class="cls-1" x="18.17" y="32.09" width="30.64" height="3.13"/>
    <path class="cls-1" d="M11.39,8.41c-.02.34-.07.51-.07.94.08,9.49-.08,18.98.01,28.47.28.32.02.14-.07.33l.1,17.65h3.09l-.04-50.43c.2-1.17.97-2.29,2.27-2.26l27.06.05,8.89,9.88v23.9h3.13V12.56c0-.39-.45-1.32-.71-1.64-1.48-1.89-3.56-3.87-5.2-5.67-.97-1.07-1.94-2.28-2.88-3.29-.76-.81-1.47-1.71-2.63-1.92l-28.45-.04c-2.53.2-4.58,2.92-4.64,5.37-.01.42-.05,2.73,0,2.97.01.05.14.03.14.07Z"/>
  </g>
</svg>