<?xml version="1.0" encoding="UTF-8"?>
<svg id="Calque_1" data-name="Calque 1" xmlns="http://www.w3.org/2000/svg" viewBox="0 0 298 108.4">
  <g>
    <path d="M141.53,96.24c-1-.56-2.2-.83-3.61-.83h-5.28c-2.12,0-3.76.62-4.93,1.85-1.17,1.23-1.75,2.98-1.75,5.24v5.91h18.63v-5.9c0-1.5-.26-2.79-.79-3.84-.53-1.06-1.29-1.87-2.28-2.42ZM142.11,105.79h-13.66v-3.37c0-1.38.36-2.44,1.07-3.2.71-.76,1.72-1.13,3.02-1.13h5.49c1.3,0,2.3.38,3.02,1.13.71.76,1.07,1.82,1.07,3.2v3.37Z"/>
    <path d="M141.53,79.79c-1.03-.54-2.24-.81-3.61-.81h-5.28c-1.38,0-2.59.27-3.62.81-1.03.54-1.83,1.31-2.4,2.29-.57.98-.85,2.13-.85,3.45s.28,2.47.85,3.45c.57.98,1.37,1.75,2.4,2.29,1.03.54,2.24.81,3.62.81h5.28c1.38,0,2.58-.27,3.61-.81s1.83-1.31,2.4-2.29c.57-.98.85-2.13.85-3.45s-.28-2.46-.85-3.45c-.57-.98-1.37-1.74-2.4-2.29ZM141.06,88.33c-.77.71-1.79,1.06-3.05,1.06h-5.46c-1.27,0-2.29-.35-3.06-1.06-.76-.71-1.15-1.64-1.15-2.81s.38-2.11,1.15-2.81c.76-.7,1.78-1.06,3.06-1.06h5.46c1.26,0,2.28.35,3.05,1.06.77.7,1.15,1.64,1.15,2.81s-.38,2.1-1.15,2.81Z"/>
    <path d="M142.16,63.97c-.83-.61-1.8-1.02-2.91-1.23v2.68c.97.25,1.7.73,2.22,1.45.51.72.77,1.48.77,2.29,0,1.14-.4,2.07-1.2,2.76-.8.7-1.87,1.04-3.19,1.04h-5.11c-1.32,0-2.39-.35-3.2-1.04-.81-.7-1.21-1.62-1.21-2.76,0-.55.12-1.08.37-1.59.25-.51.6-.96,1.04-1.34.45-.38.97-.65,1.57-.81v-2.68c-1.11.21-2.08.62-2.91,1.22-.83.6-1.47,1.35-1.94,2.24-.46.89-.69,1.88-.69,2.95,0,1.3.29,2.44.87,3.41.58.97,1.39,1.73,2.43,2.27,1.04.54,2.26.81,3.67.81h5.11c1.39,0,2.61-.27,3.65-.81,1.04-.54,1.85-1.29,2.43-2.27.58-.97.87-2.11.87-3.41,0-1.08-.23-2.06-.69-2.95-.46-.89-1.11-1.64-1.94-2.24Z"/>
    <path d="M139.39,47.09h-.03c-1.02,0-1.84.17-2.47.51-.63.34-1.13.79-1.49,1.35-.36.56-.64,1.18-.83,1.86-.19.68-.36,1.37-.49,2.05-.15.76-.32,1.47-.49,2.13-.17.66-.45,1.2-.81,1.61-.37.41-.9.62-1.6.62h-.01c-.93,0-1.65-.35-2.16-1.06-.51-.7-.76-1.69-.76-2.97,0-.71.13-1.42.38-2.12.26-.71.65-1.41,1.18-2.12l-2.08-1.49c-.66.91-1.15,1.84-1.47,2.79-.32.96-.48,1.94-.48,2.93,0,2.1.48,3.73,1.43,4.88.95,1.15,2.3,1.73,4.03,1.73h.01c1.09,0,1.95-.18,2.6-.54.65-.36,1.15-.84,1.49-1.44.35-.6.6-1.25.76-1.97.16-.71.3-1.42.42-2.12.12-.73.27-1.39.46-2.01.18-.61.46-1.1.84-1.48.38-.38.92-.56,1.63-.56h.01c.91,0,1.61.37,2.11,1.12.5.74.76,1.79.76,3.14,0,1-.15,1.93-.46,2.78-.31.85-.77,1.64-1.38,2.35l2,1.63c.51-.61.94-1.26,1.28-1.95.34-.7.6-1.44.77-2.24.17-.8.26-1.65.26-2.56,0-2.17-.47-3.85-1.41-5.05-.94-1.2-2.27-1.79-3.99-1.79Z"/>
    <path d="M181.25,76.52c3.79-.69,6.57-2.29,8.34-4.79,1.77-2.5,2.66-5.26,2.66-8.28,0-4.98-1.45-8.95-4.36-11.91-2.91-2.96-7.33-4.44-13.28-4.44h-23.78v60.35h24.49c5.45,0,9.77-1.51,12.95-4.52,3.18-3.02,4.77-6.99,4.77-11.91v-.12c0-3.54-1.03-6.68-3.09-9.42-2.06-2.74-4.96-4.38-8.69-4.94ZM159.26,54.94h13.82c3.54,0,6.2.75,7.97,2.24,1.77,1.49,2.66,3.75,2.66,6.77,0,2.85-.8,5.02-2.39,6.5-1.59,1.48-3.95,2.22-7.08,2.22h-14.98v-17.72ZM184.49,90.26c0,2.79-.93,5.05-2.8,6.76-1.87,1.72-5.04,2.57-9.53,2.57h-12.91v-19.3h14.98c3.65,0,6.27.89,7.87,2.68,1.59,1.79,2.39,4.17,2.39,7.16v.12Z"/>
    <path d="M235.58,49.23c-3.18-1.84-6.9-2.76-11.16-2.76s-7.98.92-11.16,2.76c-3.18,1.84-5.65,4.43-7.41,7.76-1.76,3.33-2.64,7.24-2.64,11.73v17.1c0,4.46.88,8.36,2.64,11.7,1.76,3.35,4.23,5.94,7.41,7.78,3.18,1.84,6.9,2.76,11.16,2.76s7.98-.92,11.16-2.76c3.18-1.84,5.65-4.43,7.41-7.78,1.76-3.35,2.64-7.25,2.64-11.7v-17.1c0-4.48-.88-8.39-2.64-11.73-1.76-3.33-4.23-5.92-7.41-7.76ZM236.95,86.11c0,4.1-1.14,7.39-3.42,9.88-2.28,2.49-5.32,3.74-9.11,3.74s-6.79-1.25-9.09-3.74c-2.3-2.49-3.44-5.78-3.44-9.88v-17.68c0-4.12,1.15-7.42,3.44-9.9,2.3-2.48,5.33-3.71,9.09-3.71s6.83,1.24,9.11,3.71c2.28,2.48,3.42,5.78,3.42,9.9v17.68Z"/>
    <polygon points="279.04 76.62 297.09 47.09 287.59 47.09 274.59 69.27 261.44 47.09 251.93 47.09 270.18 76.66 251.44 107.44 260.94 107.44 274.64 84.01 288.5 107.44 298 107.44 279.04 76.62"/>
  </g>
  <g>
    <path d="M116.48,60.94c-1.9-5.41-9.37-3.34-13.7-3.77l-.22.24c-.77-.37-3.02-.37-3.79,0l-.22-.24h-6.27s0-8.08,0-8.08c0-1.87-2.29-4.78-3.82-5.71-1.03-.62-2.29-1.02-3.47-1.21l-.16.26-.34,4.41c1.24.07,2.44.94,2.93,2.07.06.14.28.67.28.75v7.52h-25.9c-1.85.18-3.99-.32-5.74.23l-.22-.24c-5.57.29-11.47-.35-17.01,0-2.77.18-4.89,1.52-6.53,3.69l-22.14,42.91c-2.4.34-4.95-.86-5.26-3.47v-60.75c.07-1.66,2-3.5,3.62-3.5h6.14v-4.59h-6.72c-.24,0-1.02.21-1.32.29-3.71.96-6.23,4.22-6.37,8.04-.4,11.5.23,23.25-.07,34.67.45,8.4-.58,17.4,0,25.73.32,4.5,3.64,7.75,7.97,8.22h80.5c4.2-.55,7.03-3.59,8.65-7.32,5.7-11.43,12.56-22.55,18.21-34.02,1.01-2.05,1.76-3.79.95-6.12ZM112.13,63.32c-6.64,12.89-13.6,25.65-20.5,38.41-.98,1.16-2.34,2.01-3.89,2.08H15.46c-.12-.12.72-1.69.86-1.96,1.56-3.04,3.3-6.05,4.6-9.18,5.29-9.02,9.39-19.06,14.58-28.14.73-1.28,1.62-2.5,3.21-2.64,22.77.17,45.56-.2,68.32-.05,1.18,0,3.18-.1,4.24.06.81.12.95.68.86,1.42Z"/>
    <rect x="26.67" y="21.98" width="44.96" height="4.6"/>
    <rect x="26.67" y="34.54" width="44.96" height="4.6"/>
    <rect x="26.67" y="47.1" width="44.96" height="4.6"/>
    <path d="M16.72,12.34c-.03.5-.11.75-.1,1.38.12,13.92-.12,27.86.02,41.78.41.48.03.21-.11.48l.14,25.9h4.54l-.06-74.01c.3-1.72,1.42-3.36,3.33-3.32l39.71.07,13.05,14.51v35.08h4.59V18.43c0-.57-.67-1.94-1.04-2.41-2.16-2.77-5.22-5.67-7.63-8.33-1.42-1.57-2.84-3.34-4.23-4.82-1.12-1.19-2.16-2.51-3.85-2.82l-41.75-.06c-3.72.29-6.73,4.29-6.82,7.88-.02.62-.07,4,.01,4.35.02.07.21.05.2.1Z"/>
  </g>
</svg>